<svg width="136" height="54" viewBox="0 0 136 54" fill="none" xmlns="http://www.w3.org/2000/svg">
<g clip-path="url(#clip0_3_50)">
<path d="M18.9412 15.5475C19.0768 15.5181 19.1092 15.5318 19.2453 15.5645C19.3872 15.8397 19.2871 21.9354 19.2602 22.6958C19.6015 22.5406 19.9836 22.2673 20.3331 22.0932C22.0213 21.3427 24.9331 21.3089 26.6967 21.9006C30.8879 23.307 30.7098 28.5792 30.4138 32.1389C30.2632 33.9513 29.1692 35.9128 27.5617 36.6842C25.8033 37.7142 23.3462 37.6862 21.3619 37.5531C15.4751 37.1583 15.3768 33.0779 15.3749 28.3899L15.3767 23.2051L15.3744 18.7199C15.3742 17.9297 15.3445 16.8727 15.4126 16.1023C16.3445 15.8809 17.94 15.7045 18.9412 15.5475ZM23.6579 34.3721C24.378 34.2698 25.3621 34.0489 25.7857 33.3731C26.8059 31.7456 26.5911 29.2197 26.3924 27.394C26.1423 25.0956 24.1977 24.5603 22.1751 24.7678C19.112 25.2202 19.3733 26.7868 19.2416 29.3178C19.0737 32.5436 19.8669 34.9413 23.6254 34.3771L23.6579 34.3721Z" fill="#0B2859"/>
<path d="M69.4315 22.72C73.4483 22.5132 75.2155 24.3383 75.39 28.2903C75.5386 31.6663 75.3369 35.8126 70.9865 36.0336C68.8458 36.1424 67.5071 36.2668 65.7776 34.7742L65.3682 34.5139C65.4963 35.9137 65.4225 38.6937 65.4295 40.1758C65.0521 40.2073 64.5357 40.2068 64.1472 40.218L64.1367 32.1168C64.1355 27.5718 63.5086 23.0089 69.4315 22.72ZM70.8936 34.84C73.1299 34.3793 73.9737 33.1838 74.0519 30.8742C74.2039 26.4169 74.1561 23.6436 68.8225 24.0407C67.8607 24.2203 66.9326 24.3833 66.3548 25.2603C65.4787 26.5905 65.4581 27.9893 65.4461 29.4973C65.4119 33.7905 66.8477 34.9327 70.8936 34.84Z" fill="#0B2859"/>
<path d="M36.8838 17.6755C37.0226 17.6296 37.0506 17.6418 37.1945 17.6757C37.3468 17.9094 37.2713 21.3954 37.2675 21.9592C38.5774 21.9637 41.5279 22.0429 42.6766 21.9083C42.6177 23.289 42.2759 24.1564 42.1804 25.3274L37.2563 25.3432C37.3485 27.5266 37.0409 31.2525 37.605 33.1783C39.0411 34.2669 40.7769 34.0169 42.5444 34.0432L42.3282 35.1132C42.157 35.7449 42.0313 36.6294 41.9504 37.2764C40.2044 37.1402 38.445 37.4262 36.6635 36.9918C33.0708 36.1158 33.2611 32.7958 33.258 29.8452L33.2551 25.4754V20.8941C33.2555 20.1189 33.2243 19.0084 33.2921 18.2584C34.4966 18.0948 35.665 17.8199 36.8838 17.6755Z" fill="#0B2859"/>
<path d="M122.945 22.9062C124.246 22.7799 127.96 22.8529 129.145 23.1901C129.628 23.3301 130.079 23.5646 130.471 23.8802C131.316 24.56 131.772 25.7115 131.788 26.7615C131.878 32.7753 133.063 36.882 125.028 36.0603C123.942 35.9493 123.476 35.7349 122.639 35.0436C122.265 34.637 121.858 34.0519 121.743 33.5091C121.024 29.9947 122.407 27.557 126.237 27.6358C128.363 27.6795 128.843 27.6957 130.71 28.8086C130.55 27.6643 130.684 25.8807 129.748 25.0076C128.461 23.8069 125.07 24.1954 123.391 24.1697C123.139 24.1659 122.979 24.2081 122.798 24.0344C122.726 23.6569 122.826 23.2647 122.945 22.9062ZM127.915 34.8398C128.692 34.7884 129.48 34.6011 130.009 33.9894C130.96 32.8893 130.802 30.5545 129.685 29.6203C128.658 28.7618 127.134 28.7366 125.866 28.8209C123.519 29.0039 122.726 30.2455 122.912 32.5425C123.123 35.1341 125.996 34.9 127.915 34.8398Z" fill="#0B2859"/>
<path d="M78.6784 22.9052L78.7209 22.9007C79.9202 22.7817 83.6351 22.8729 84.7178 23.157C85.2379 23.2903 85.7235 23.5345 86.1407 23.8729C87.9471 25.3678 87.4429 28.7547 87.5265 30.8577C87.5577 31.6434 87.5053 32.4999 87.3547 33.2678C86.814 36.019 84.211 36.185 81.8918 36.1115C80.2373 36.0689 79.57 36.0997 78.285 35.0208C76.9742 33.6985 76.949 30.9348 77.8426 29.3725C78.2817 28.6051 79.304 28.0105 80.1491 27.8066C82.26 27.2978 84.4869 27.6504 86.3377 28.7867C86.3052 28.2093 86.3099 27.6224 86.2634 27.0431C85.9921 23.6306 82.6109 24.2088 80.1378 24.1329C79.5819 24.1158 78.9643 24.1331 78.415 24.1872C78.4495 23.7423 78.4675 23.3034 78.6784 22.9052ZM83.4594 34.8422C85.4183 34.781 86.3815 33.8232 86.3172 31.8576C86.229 29.1381 83.7585 28.592 81.5097 28.8218C80.5903 28.8849 79.907 29.0056 79.2542 29.716C78.23 30.8301 78.1895 33.1782 79.365 34.1832C80.313 34.9936 82.2626 34.8741 83.4594 34.8422Z" fill="#0B2859"/>
<path d="M118.225 22.8949C118.751 22.8456 119.051 22.8471 119.581 22.8658C119.622 23.3365 119.593 23.9149 119.581 24.3954L119.589 28.7947C119.59 30.9966 119.805 34.0844 117.766 35.4865C116.537 36.3324 113.823 36.2412 112.381 36.0175C110.716 35.7591 109.665 34.407 109.469 32.7773C109.192 30.4663 109.367 28.1051 109.322 25.7787C109.312 25.1386 109.239 23.523 109.346 22.9609C109.507 22.8245 109.642 22.8649 109.889 22.8538L110.667 22.8767L110.654 28.0838C110.651 29.6374 110.359 33.0616 111.608 34.2095C112.607 35.0114 114.177 34.9068 115.352 34.8693C119.182 34.747 118.142 30.1343 118.276 27.5243C118.344 26.2032 118.33 24.2144 118.225 22.8949Z" fill="#0B2859"/>
<path d="M101.32 19.469L102.096 19.4072C101.996 20.5103 102.05 21.736 102.017 22.8661C103.412 22.7914 105.958 22.8477 107.389 22.8785C107.257 23.2847 107.267 23.6348 107.068 24.027C106.785 24.2213 102.717 24.1373 102.028 24.1372C102.068 26.0413 101.759 32.194 102.413 33.6474C102.681 34.2446 103.129 34.3943 103.702 34.6074C104.67 34.8717 106.157 34.7816 107.224 34.8039C107.214 35.068 107.248 36.0208 106.86 36.0187C105.358 36.0104 103.826 36.227 102.421 35.6236C101.101 35.0565 100.647 32.986 100.744 31.7655C100.864 30.2623 100.454 20.3371 100.797 19.695C100.959 19.5303 101.093 19.5209 101.32 19.469Z" fill="#0B2859"/>
<path d="M94.6278 22.9165C95.8956 22.8373 97.3643 22.8565 98.6353 22.8927C98.5219 23.2497 98.4157 23.7779 98.3295 24.155L96.3208 24.1381C91.975 24.132 90.8645 25.2224 91.0032 29.6602C91.027 30.448 90.9912 31.0923 91.1544 31.8988C91.7999 35.0953 94.807 34.801 97.2674 34.7858L98.6287 34.7904C98.4595 36.5528 98.0602 35.9969 96.6001 36.0257C94.797 36.0592 92.8739 36.1767 91.3773 34.955C89.6015 33.5055 89.6426 30.9208 89.6645 28.8432C89.6811 27.214 89.8569 25.7943 90.9156 24.4884C91.9432 23.2215 93.1134 23.0699 94.6278 22.9165Z" fill="#0B2859"/>
<path d="M134.365 17.8576C134.694 17.8398 135.227 17.7777 135.495 17.9623C135.577 18.1507 135.651 35.3747 135.497 36.1664C135.13 36.1504 134.698 36.1615 134.325 36.1621C134.261 35.1949 134.318 33.6209 134.318 32.5915L134.317 25.486L134.312 20.9996C134.308 20.3637 134.241 18.3059 134.365 17.8576Z" fill="#0B2859"/>
<path d="M24.0298 0H28.6889C29.0577 0.156331 29.4931 0.179859 29.8901 0.225635C38.6791 1.23911 46.6452 7.51084 50.2404 15.5233C50.3122 15.6834 50.371 15.8677 50.4179 16.0369C49.9324 15.9495 49.7153 15.9266 49.2224 15.9144C46.3014 10.3125 42.9495 6.66824 37.32 3.78895C22.2452 -3.92138 4.07709 6.12121 1.45218 22.5981C0.73181 26.9856 1.13171 31.484 2.61474 35.6756C7.5114 49.86 23.8509 57.0471 37.3613 50.1954C41.6564 48.0172 44.9132 45.0972 47.5075 41.0472C47.6675 40.7975 47.8281 40.5328 48.0372 40.3208C48.2938 40.0613 48.6085 39.8666 48.9552 39.7529C50.7051 39.1789 54.0403 40.3815 54.8136 37.6687C54.9977 37.0229 55.0468 36.3417 55.061 35.6729C52.7696 36.9177 50.2888 36.9199 47.7926 36.2965C43.5801 35.2444 43.5534 29.1462 44.3374 25.7764C45.4194 21.1258 51.2227 21.0152 54.9503 21.9275C56.3012 22.2518 57.5716 23.3299 58.2226 24.596C58.5917 25.3257 58.8333 26.1131 58.937 26.9242C59.0641 27.8691 59.0588 28.8648 59.0558 29.8175C59.0474 32.0181 59.0681 34.2191 59.0495 36.4196C59.0434 37.1431 58.9687 38.0098 58.7435 38.6942C58.491 39.4613 58.0348 40.2531 57.4742 40.84C54.9485 43.4834 51.0409 42.6223 47.7746 42.8638L47.7554 42.8811C47.3094 43.2915 46.8571 43.9967 46.4549 44.4898C36.5273 56.66 17.2185 57.1626 6.88378 45.2287C3.68026 41.5295 1.63987 37.6883 0.538261 32.8141C0.365241 32.1186 0.238536 30.0043 0 29.5705V23.9066C0.22679 23.4465 0.34424 21.5353 0.539777 20.8605C0.923658 19.5357 1.36599 17.8224 1.88185 16.5664C4.4106 10.4509 9.08453 5.46902 15.0261 2.55623C17.0155 1.59647 18.9509 0.94215 21.109 0.455019C21.9453 0.266259 23.2804 0.337013 24.0298 0ZM51.712 33.5233C54.716 33.2593 55.0547 32.342 55.0697 29.3987C55.0853 26.3339 54.8354 24.799 51.3801 24.7111C50.3814 24.792 49.3587 24.8256 48.6952 25.7151C48.0831 26.5354 48.0059 27.3973 47.9984 28.4124C47.9872 29.9146 47.8118 31.8743 49.0708 32.9712C49.5841 33.4185 51.0351 33.5286 51.712 33.5233Z" fill="#0B2859"/>
</g>
<defs>
<clipPath id="clip0_3_50">
<rect width="135.859" height="54.0062" fill="white"/>
</clipPath>
</defs>
</svg>
